<svg xmlns="http://www.w3.org/2000/svg" xmlns:xlink="http://www.w3.org/1999/xlink" width="150" height="171.746" xmlns:v="https://vecta.io/nano"><style><![CDATA[.B{clip-path:url(#B)}]]></style><defs><path id="A" d="M0 0h150v171.746H0z"/></defs><clipPath id="B"><use xlink:href="#A"/></clipPath><path d="M15.773 81c-2.322-.163-4.19-1.606-5.388.492-1.2 2.082-2.574 5.382-1.762 7.928.797 2.546 1.61 1.618.797 5.797-.797 4.18-1.8 3.954-1.003 10.44.812 6.5 1.815 13.467.812 17.646-1.02 4.18-2.214 10.905-1.61 13.227.6 2.322-.605 7.43 2.007 7.654 2.613.24 6.246.24 8.667 0 2.407-.225 3.425.93 6.644 1.633 3.218.688 5.847.688 9.256 0 3.425-.704 7.662-.465 10.276-.465 2.628 0 6.658 0 9.272-.928s7.042-3.955 11.486-2.562c4.43 1.393 6.245 1.633 7.44 0 1.21-1.618-.398-6.485-.797-10.2s-.812-3.027-.207-8.6c.606-5.557 1.816-14.62 1.2-16.94-.604-2.306-.523-7.386-.262-11.347s.055-3.736-1.347-6.972c-1.417-3.25 1.5-3.464-2.166-5.327-3.68-1.88-3.873.444-7.904-.7-4.03-1.17-10.482-2.098-13.095-1.393-2.63.688-5.24 1.152-8.46.224s-9.463-1.153-12.283-.224-9.48 1.152-12.092.464l.508.164z" fill="#798000" class="B"/><path d="M84.39 81c-2.323-.163-4.19-1.606-5.402.492-1.21 2.082-2.56 5.382-1.763 7.928.812 2.546 1.61 1.618.812 5.797-.812 4.18-1.816 3.954-1.003 10.44.796 6.5 1.8 13.467.796 17.646s-2.214 10.905-1.61 13.227-.605 7.43 2.008 7.654c2.628.24 6.245.24 8.667 0 2.417-.225 3.43.93 6.652 1.633 3.225.688 5.85.688 9.25 0 3.424-.704 7.678-.465 10.275-.465 2.627 0 6.673 0 9.27-.928 2.63-.93 7.057-3.955 11.486-2.562s6.26 1.633 7.44 0c1.21-1.618-.383-6.485-.797-10.2-.383-3.716-.797-3.027-.207-8.6.62-5.557 1.832-14.62 1.21-16.94-.6-2.306-.523-7.386-.26-11.347s.054-3.736-1.333-6.972c-1.417-3.25 1.487-3.464-2.196-5.327-3.65-1.88-3.858.444-7.872-.7-4.045-1.17-10.482-2.098-13.11-1.393-2.628.688-5.227 1.152-8.443.224s-9.48-1.153-12.29-.224c-2.83.928-9.474 1.152-12.102.464l.52.164z" fill="#78512b" class="B"/><path d="M15.773 9.994c-2.322-.163-4.19-1.605-5.388.492-1.2 2.082-2.574 5.382-1.762 7.928.797 2.562 1.61 1.633.797 5.797-.797 4.18-1.8 3.955-1.003 10.456.812 6.486 1.815 13.45.812 17.63-1.02 4.18-2.214 10.905-1.61 13.226.6 2.323-.605 7.43 2.007 7.654 2.613.24 6.246.24 8.667 0 2.407-.223 3.425.93 6.644 1.633 3.218.69 5.847.69 9.256 0 3.425-.704 7.662-.464 10.276-.464 2.628 0 6.658 0 9.272-.928s7.042-3.94 11.486-2.547c4.43 1.377 6.245 1.618 7.44 0 1.21-1.632-.398-6.5-.797-10.216s-.812-3.026-.207-8.583c.606-5.572 1.816-14.62 1.2-16.94s-.523-7.402-.262-11.363.055-3.72-1.347-6.972c-1.417-3.25 1.5-3.463-2.166-5.326-3.68-1.88-3.873.443-7.904-.7-4.03-1.17-10.482-2.098-13.095-1.393-2.63.688-5.24 1.153-8.46.224s-9.463-1.152-12.283-.224-9.48 1.153-12.092.464l.508.163z" fill="#c79000" class="B"/><path d="M84.39 9.994c-2.323-.163-4.19-1.605-5.402.492-1.21 2.082-2.56 5.382-1.763 7.928.812 2.562 1.61 1.633.812 5.797-.812 4.18-1.816 3.955-1.003 10.456.796 6.486 1.8 13.45.796 17.63s-2.214 10.905-1.61 13.226-.605 7.43 2.008 7.654c2.628.24 6.245.24 8.667 0 2.417-.223 3.43.93 6.652 1.633 3.225.69 5.85.69 9.25 0 3.424-.704 7.678-.464 10.275-.464 2.627 0 6.673 0 9.27-.928 2.63-.93 7.057-3.94 11.486-2.547 4.43 1.377 6.26 1.618 7.44 0 1.21-1.632-.383-6.5-.797-10.216-.383-3.715-.797-3.026-.207-8.583.62-5.572 1.832-14.62 1.21-16.94-.6-2.322-.523-7.402-.26-11.363s.054-3.72-1.333-6.972c-1.417-3.25 1.487-3.463-2.196-5.326-3.65-1.88-3.858.443-7.872-.7-4.045-1.17-10.482-2.098-13.11-1.393-2.628.688-5.227 1.153-8.443.224s-9.48-1.152-12.29-.224c-2.83.928-9.474 1.153-12.102.464l.52.163z" fill="#006060" class="B"/><path d="M120.698 101.397h-10.533V99.7h10.533v1.696zm0-5.933h-10.533V93.77h10.533v1.693zm-19.023 19.487c0-.14-.06-.354-.206-.65-.148-.416-.474-.63-1.007-.63l-2.426.85v-7.193c-.143-.156-.087-.7.207-1.696.268-.984 1.008-1.692 2.22-2.125v-5.93h-2.426v-7.192c-.415-2.125-1.95-3.2-4.667-3.2-2.818 0-4.375 1.065-4.652 3.2v7.192h-3.224c-1.495.433-2.234 2.187-2.234 5.3 0 2.973.874 4.727 2.633 5.3h2.825v9.318l-4.04 1.692c-1.08 1.124-1.2 3.174-.415 6.146.814 2.82 2.16 4.02 4.057 3.606l6.876-2.56c-2.16-3.665-2.094-6.205.205-7.62l6.274-3.804m30.74 3.804c0 7.777-.476 12.843-1.424 15.247-.915 2.404-2.335 3.544-4.23 3.4h-7.7c-2.308-.416-3.433-1.833-3.433-4.236 0-2.54 1.125-3.942 3.433-4.218h3.225c.56-1.713.885-3.606 1.035-5.73l.177-3.175h-1.596c-.15.988-.265 2.466-.416 4.45l-.415 3.175h-4.023c-1.775.276-2.72 1.416-2.84 3.4-.147 1.973-.147 3.112 0 3.4-.415.432-1.27.984-2.634 1.692s-2.1 1.124-2.215 1.265c-1.48.432-3-.276-4.47-2.108s-1.48-3.53 0-5.085c1.215-.568 3.165-1.77 5.888-3.604 2.7-1.832 4.76-3.883 6.27-6.146h-1.625c-4.32 4.097-7.544 6.637-9.704 7.625-2.3.864-3.52 2.696-3.64 5.514-1.627.14-2.84-.7-3.667-2.54-.8-1.973-.53-3.665.828-5.085.8-.412 2.07-1.14 3.844-2.124 1.63-.984 3.285-2.248 5.06-3.805h-1.625c-2.43 1.696-4.38 2.895-5.86 3.606s-2.775 1.48-3.843 2.322c-.95-.276-1.565-1.14-1.83-2.54-.274-1.557.2-2.68 1.415-3.4.68-.567 2.216-1.635 4.645-3.17 2.304-1.42 3.844-2.898 4.674-4.454h-3.64c-1.627-.293-2.515-1.416-2.635-3.4-.145-1.97.475-3.1 1.807-3.4.83.987 1.833 1.54 3.048 1.696 1.065.275 1.685.416 1.806.416h21.86c.945-.416 1.54-.988 1.805-1.696l.62-1.26h1.214c.946.276 1.42 1.557 1.42 3.805 0 2.125-.475 3.4-1.42 3.817H115.85l-.83 1.695h12.543c2.425.14 3.845.907 4.26 2.327.38 1.26.592 2.047.592 2.327m-2.813-16.943V91.647c0-.28-.207-.988-.62-2.112-.53-1.276-1.95-1.988-4.26-2.124H106.53c-.27-.14-.95 0-2.013.432-1.212.416-1.896 1.557-2.04 3.4v11c-.122.14-.06.77.206 1.895.148 1.004 1.005 1.634 2.632 1.9h20.238c.116 0 .796-.198 2-.63 1.094-.433 1.745-1.635 2.04-3.604m-76.61 16.113l-1.6 2.973c-.27 0-.95-.984-2.03-2.973h3.64zm-14.157 5.93c.55-.276.814-1.047.814-2.326-.13-1.417-.68-2.187-1.626-2.326H33.16v-1.693l2.825-.432c1.364-.416 1.895-1.4 1.63-2.957-.265-1.415-1.214-2.124-2.824-2.124l-4.66.214-9.113.215c-1.48.14-2.22 1.065-2.22 2.758-.134 1.54.475 2.467 1.82 2.742h4.054v1.277h-6.48c-1.08.14-1.63 1.124-1.63 2.96 0 1.692.55 2.676 1.63 2.973h3.24c-.415.432-1.08.906-2.03 1.478s-1.6 1.202-2.025 1.9c-1.345 1.416-1.405 3.034-.2 4.866 1.2 1.693 2.75 2.187 4.644 1.494.415-.156.87-.5 1.42-1.063.68-.7 1.154-1.065 1.42-1.065v2.545c.266 1.415 1.685 2.186 4.244 2.32 2.425 0 3.845-.766 4.244-2.32v-4.237c-2.824-3.112-3.64-5.44-2.424-6.995 1.08-1.553 2.7-2.322 4.85-2.322a2.69 2.69 0 0 1 2.03.844l1.2 1.263m1.215 4.237c0 .568-.53 1.277-1.6 2.125s-2.03.987-2.844.416l-2.025-2.108-.8-.85c-.68-1.28-.47-2.326.6-3.175.945-1 1.95-1.062 3.03-.214a20.43 20.43 0 0 1 1.614 1.28c.68.552 1.36 1.4 2.026 2.525m-3.24-18.207v-1.494c-.135-.984-.814-1.48-2-1.48h-11.76c-1.08 0-1.6.494-1.6 1.48-.134 1 .13 1.77.814 2.343 3.1.14 6 0 8.68-.433l5.874-.416m4.454.848c-.135.708-.474 1.264-1 1.692l-1.02.416c-.265-.7-.53-1.26-.795-1.693l-.416-.415c.132-.984.132-2.05 0-3.2-.268-1.26-.948-1.895-2.028-1.895h-13.74c-1.08.14-1.704.712-1.82 1.696-.284.983-.34 1.557-.2 1.692v2.1c-1.2.293-2.025.7-2.425 1.277-.415.7-.55 1.124-.415 1.264-.665-.14-1.14-.493-1.405-1.046-.28-.7-.34-1.063-.205-1.063V103.5c0-1.124.266-1.754.795-1.9.416-.275.68-.338.815-.197.815.983 1.63 1.557 2.425 1.692.68.275 1.08.415 1.214.415H36.8c1.214-.14 2.085-.493 2.634-1.046l1.005-1.062c.15.275.28.708.415 1.26.13.708.264 1.124.4 1.28v6.78zm23.06 20.33c-.27-1.28-1.064-2.326-2.428-3.176-1.48-.843-2.7-1.63-3.64-2.32.136-.156.875-1.28 2.22-3.404 1.23-2.112 1.97-4.653 2.235-7.625.135-.277 0-.988-.415-2.112-.265-1.277-1.6-1.97-4.04-2.125H47.732c-.134 0-.6.292-1.42.848-.814.568-1.82.7-3.034.433l-.814 1.48c-.53.844-1.346 1.34-2.425 1.48.265 2.54.945 4.882 2.025 7 1.08 1.972 2.028 3.466 2.828 4.45-.134 0-.6.28-1.423.85l-1.8 1.264c.13 1-.15 1.988-.814 2.973-.68.848-1.76 1.557-3.24 2.1-.134.155.075.785.605 1.9a4.42 4.42 0 0 0 2.635 2.326 14.75 14.75 0 0 0 5.854-1.678c2.03-1.14 3.583-2.127 4.664-2.976 0 .14.8.85 2.425 2.128 1.6 1.26 3.24 2.1 4.85 2.525 1.76-.14 3.108-.77 4.054-1.896.943-1.28 1.478-2.758 1.6-4.45m-25.1-35.58c1.364-.293 2.03-1.34 2.03-3.172 0-1.987-.665-3.05-2.03-3.2h-5.25v-1.26c-.415-1.004-1.97-1.478-4.66-1.478-2.825 0-4.378.474-4.644 1.478v1.26h-6.08c-1.214.14-1.88 1.202-2.03 3.2 0 1.832.55 2.88 1.63 3.172h6.48v1.264h-4.054c-1.215.155-1.82 1.062-1.82 2.758 0 1.557.605 2.463 1.82 2.755H36.8c1.214-.292 1.82-1.198 1.82-2.755.15-1.696-.474-2.603-1.82-2.758h-2.824v-1.264h5.25zm25.9 5.933c-.13-1.557-1.08-2.62-2.84-3.2-1.88-.692-3.225-.494-4.04.646l-.8 2.112h-1.214c-.135-.276-.06-1.124.206-2.54.4-1.42 1.688-2.404 3.848-2.96v-3.817c0-.14-.134-.712-.415-1.696-.4-.984-1.345-1.556-2.825-1.692h-12.55c-.135-.14-.55-.063-1.214.214-.68.14-.945.77-.814 1.9.4.416.6 1.338.6 2.758 0 1.26-.475 2.187-1.405 2.738-.15 0-.284.495-.415 1.48l-.4 2.343c1.2.848 1.894 2.1 2 3.804v6.36c1.76.276 3.314-.433 4.66-2.124 1.215-1.696 1.955-5.22 2.235-10.582h1.215v8.04c-.15.137 0 .782.4 1.907.266.987 1.2 1.618 2.84 1.9h6.464c1.2-.136 2.16-.845 2.84-2.125.798-1.4 1.345-3.234 1.6-5.498m67.708-45.47c-.146-2.265-1.36-3.82-3.636-4.666-2.3-.848-5.533-3.25-9.704-7.193H130.4c1.63-.432 2.426-2.05 2.426-4.867 0-2.972-.796-4.6-2.426-4.882h-4.053c-1.745 1.692-3.636 2.48-5.65 2.323-2.04-.276-3.64-1.046-4.85-2.323H113.4V18.608c-.53-1.676-2.276-2.524-5.235-2.524v50.828c2.96 0 4.704-1.28 5.235-3.82V52.078c.95.987 2.724 2.618 5.268 4.867 2.574 2.128 4.734 3.76 6.48 4.886 1.893.844 3.58.708 5.06-.432 1.625-1.264 2.484-3.096 2.63-5.5m-49.36 0c.13-2.265 1.345-3.82 3.636-4.666s5.525-3.25 9.714-7.193H85.893c-1.63-.432-2.425-2.05-2.425-4.867 0-2.972.796-4.6 2.425-4.882h4.05c1.757 1.692 3.625 2.48 5.67 2.323 2-.276 3.64-1.046 4.85-2.323h2.428V18.608c.53-1.676 2.274-2.524 5.265-2.524v50.828c-3 0-4.734-1.28-5.265-3.82V52.078c-.95.987-2.696 2.618-5.268 4.867-2.57 2.128-4.712 3.76-6.48 4.886-1.884.844-3.564.708-5.045-.432-1.625-1.264-2.5-3.096-2.63-5.5m-41.8-20.332h-3.655V34.3h3.655v1.276zm0-6.777h-3.655v-1.277h3.655V28.8zm-9.718-9.318c0-.708-.815-1.494-2.43-2.342-1.76-.848-3.37-.907-4.85-.198l-7.693 8.886c-.68.848-.87 1.77-.606 2.758.266.848 1.42 2.327 3.43 4.45l-3.24 4.237c-.93 1.125-1.14 2.326-.6 3.587.4 1.28 1.54 2.186 3.43 2.758h10.933c-1.08-1.696-1.625-3.113-1.625-4.236v-8.038c-1.48-.296-2.56.137-3.24 1.26-.668.988-.668 2.265 0 3.82-.8.556-1.214-.155-1.214-2.124 0-1.696.545-2.758 1.625-3.175.95-.567 2.014-.786 3.224-.63v-6.36L26.67 26.25l-.8-.432 6.068-6.346zm29.536 44.9c.684-.988 1.08-2.264 1.214-3.82s-.415-2.68-1.6-3.388c-.284-.14-1.494-.572-3.654-1.264l-5.668-2.54h8.508c1.345-.432 2.085-1.833 2.22-4.236 0-2.54-.74-3.957-2.22-4.233H44.892v-1.28h.8c-1.48-2.25-1.6-4.373-.4-6.345 1.214-1.833 2.145-3.113 2.828-3.82-1.214-1.125-2.1-2.187-2.634-3.174-.665-1.14-.606-2.48.205-4.02l3.64-5.08a.58.58 0 0 0-.2-.432c-.284-.28-1.02-.416-2.234-.416h-1.614c.134-1.712-.206-2.836-1.02-3.4-.945-.708-2.084-1.004-3.43-.848-1.76-.156-3.034.14-3.85.848-.68.553-1.286 1.677-1.816 3.4h-2.43c-.13-.156-.545 0-1.2.416-.55.276-.95 1.276-1.214 2.972v16.5c-.15.156 0 .708.4 1.692.266.988 1.214 1.556 2.825 1.696h1.23v1.28H19.802c-1.6.276-2.425 1.692-2.425 4.233 0 2.404.815 3.804 2.425 4.236h7.294c-2.025.985-3.714 1.62-5.06 1.9-1.494.276-2.765.63-3.844 1.046-1.63 1.14-2.16 3.034-1.63 5.73.68 2.54 2.444 3.727 5.27 3.587.13-.136 1.685-.845 4.66-2.1 2.825-1.417 5.6-3.248 8.3-5.513v6.36c.4 2.1 2.085 3.17 5.06 3.17 2.824 0 4.5-1.062 5.043-3.17v-5.516c1.76 1.556 4.32 3.33 7.7 5.298 3.374 1.975 6.348 2.053 8.903.22m2.43-35.58l-2.43 3.388c-.945-.844-2.365-1.276-4.244-1.276-1.895 0-2.915 1.276-3.03 3.82.266 1.97.666 2.676 1.195 2.108-.4-.708-.6-1.478-.6-2.326 0-.984.6-1.77 1.82-2.326 2.7-.844 4.454-.136 5.25 2.112l1.63 4.665c1.08 3.097.53 4.653-1.63 4.653H49.343c-2-.14-3.24-.848-3.64-2.1-.4-1.28-.13-2.544.815-3.82l3.24-4.653c-1.625-1.28-2.705-2.342-3.24-3.2-.68-.984-.415-2.323.814-4.02l6.88-8.038c1.345-1.14 2.956-1.14 4.85 0 1.745 1.124 2.295 2.54 1.615 4.233-.815-.292-1.745 0-2.825.848l-3.24 3.388.795.85 2.84-2.973c1.215-1.125 2.56-1.125 4.04 0 1.63 1.277 2.16 2.818 1.63 4.666" class="B" fill="#fff"/><path d="M10.973 153.757v8.97c-.056 1.492.288 2.602 1.03 3.313.76.77 1.89 1.178 3.393 1.178h2.634v-3.126h-2.55c-.428-.072-.772-.198-1.03-.397-.184-.246-.286-.573-.286-.968v-8.97h-3.192zm13.33 8.676c0 .654.1 1.262.288 1.856.242.643.585 1.192 1.03 1.646.444.466.945.815 1.502 1.075a4.11 4.11 0 0 0 1.791.396c.557 0 1.13-.13 1.69-.396.557-.26 1.102-.61 1.603-1.075a5.77 5.77 0 0 0 .929-1.646c.187-.595.315-1.202.372-1.856-.057-.652-.185-1.27-.372-1.854-.242-.645-.557-1.17-.93-1.555-.5-.523-1.046-.92-1.603-1.177s-1.132-.385-1.69-.385c-.63 0-1.232.125-1.79.385s-1.058.653-1.502 1.177c-.444.386-.787.9-1.03 1.555-.187.584-.288 1.202-.288 1.854m2.922 0c0-.584.142-1.062.458-1.46.315-.326.73-.488 1.232-.488a1.53 1.53 0 0 1 1.13.488c.3.398.5.876.56 1.46-.058.524-.26.97-.56 1.365a1.9 1.9 0 0 1-1.13.583c-.5-.058-.917-.255-1.232-.583-.316-.394-.458-.84-.458-1.365m12.606 4.785h2.82v-5.274c0-.454.13-.842.388-1.168.186-.268.5-.386.93-.386.387 0 .687.118.946.386a2.62 2.62 0 0 1 .472 1.168v5.274h2.82v-4.983c-.056-1.563-.414-2.766-1.03-3.597-.572-.8-1.36-1.175-2.363-1.175-.428 0-.844.066-1.215.196-.315.13-.632.353-.947.68v-4.58h-2.82v13.46zm21.08 0h2.82v-3.91a15.58 15.58 0 0 0-.085-1.657c-.073-.524-.186-.98-.387-1.365-.373-.91-.93-1.622-1.7-2.138-.687-.456-1.503-.686-2.432-.686-1.39 0-2.493.45-3.293 1.364-.887.9-1.317 2.11-1.317 3.605 0 1.425.4 2.603 1.217 3.502.816.852 1.946 1.308 3.393 1.364.113 0 .27-.022.457-.08h.76v-3.126l-.66.197c-.186.058-.343.092-.472.092-.63-.058-1.06-.255-1.317-.583-.315-.326-.473-.78-.473-1.365 0-.652.13-1.106.388-1.365.314-.326.714-.488 1.215-.488.56-.07 1.002.092 1.317.488.315.326.5.876.558 1.66v4.492zm9.094-2.64v2.64h3.02a11.28 11.28 0 0 0 1.503-.105c.5-.057.93-.198 1.317-.383.372-.27.658-.596.844-.982s.288-.78.288-1.17c0-.72-.23-1.294-.658-1.76-.388-.515-1.002-.933-1.89-1.26l-1.217-.585c-.073-.068-.128-.137-.187-.197-.07-.06-.1-.104-.1-.104 0-.187.03-.315.1-.385.058-.06.187-.06.373 0h3.105v-2.627H73.4c-1.075 0-1.876.223-2.448.68-.558.523-.844 1.2-.844 2.052 0 .583.186 1.1.557 1.554.387.466.946.875 1.704 1.27l1.317.584c.057 0 .115.035.186.096.058.068.087.162.087.3-.058.07-.13.14-.187.197s-.158.13-.288.197h-3.477zm20.266 2.64h3.188v-8.788c0-.642.138-1.098.378-1.365.25-.314.604-.478 1.04-.478a1.35 1.35 0 0 1 .845.288c.195.262.314.588.37.973 0 .395-.157.688-.468.884-.236.19-.648.318-1.222.385h-.37v3.024h.277c.687-.06 1.237.035 1.608.292.316.258.474.78.474 1.563v3.222h3.28v-4.004c0-.98-.2-1.656-.574-2.052-.37-.445-.957-.713-1.785-.772.626-.266 1.142-.652 1.514-1.177.315-.516.488-1.11.572-1.75a4.25 4.25 0 0 0-1.318-2.83c-.83-.775-1.888-1.175-3.204-1.175-1.438 0-2.578.432-3.378 1.278-.822.904-1.23 2.14-1.23 3.693v8.79zm15.876 0h2.905v-9.56h-2.905v9.56zm-.202-12.093a1.62 1.62 0 0 0 .473 1.17c.317.326.73.52 1.217.58.428-.06.83-.255 1.115-.58.313-.326.514-.713.573-1.17-.06-.52-.26-.94-.573-1.267-.285-.322-.688-.485-1.115-.485-.486 0-.9.163-1.217.485s-.473.745-.473 1.267m16.064 5.455v-2.92h-1.044c-1.746 0-3.063.444-3.95 1.365-.947.842-1.418 1.975-1.418 3.408 0 1.425.47 2.568 1.418 3.42.888.83 2.205 1.283 3.95 1.364h1.044v-2.93h-1.246c-.743-.07-1.317-.233-1.69-.49-.37-.326-.54-.746-.54-1.27 0-.643.17-1.135.54-1.46s.946-.488 1.69-.488h1.246zm15.886 3.115l-2.162-1.063c-.372.583-.79 1.04-1.217 1.365s-.945.514-1.488.582a2.07 2.07 0 0 1-1.417-.78c-.372-.395-.574-.908-.574-1.563 0-.71.202-1.296.574-1.75.37-.388.843-.585 1.417-.585h.543c.2.06.37.164.572.293l-2.43 1.75 1.115 1.75 4.424-3.115c-.516-1.04-1.115-1.82-1.9-2.337-.744-.522-1.577-.747-2.432-.688a5.65 5.65 0 0 0-1.792.294c-.573.256-1.057.653-1.518 1.177-.43.386-.757.9-1.014 1.555a5.65 5.65 0 0 0-.303 1.854c0 .654.102 1.262.303 1.856.257.643.585 1.192 1.014 1.646.46.466.945.815 1.518 1.075.575.267 1.16.396 1.792.396 1.057-.07 2.015-.396 2.903-.98.832-.656 1.518-1.555 2.063-2.733" class="B"/><path d="M119.643 23.196c-3.05 5.548-2.73 9.102-.3 10.383s6.02-.2 9.072-5.74c.896-1.636 1.257-2.238 1.7-3.768-1.07-.7-2.426-2.658-.855-5.577a2.38 2.38 0 0 0-.781-.679c-2.422-1.265-5.794-.167-8.817 5.38M88.7 27.43c2.606 5.8 5.596 7.567 8 6.257 2.412-1.3 3.353-5.217.732-11-.755-1.714-1.02-2.35-1.968-3.608-1.198.5-3.514.498-4.895-2.505-.36.02-.68.105-.978.27-2.4 1.3-3.5 4.8-.882 10.578" class="B" fill="#fff" fill-rule="evenodd"/></svg>